<?xml version="1.0" encoding="UTF-8"?>
<svg id="forward" xmlns="http://www.w3.org/2000/svg" viewBox="0 0 25.04 25.48">
<defs><style>.c{fill:#fff}</style></defs>
<path class="c" d="m8.81,17.2v-6.55l-1.66,1.28-1.1-1.5,2.93-2.15h1.93v8.91h-2.1Z"/>
<path class="c" d="m19.43,12.72c0,.63-.06,1.23-.19,1.8s-.33,1.07-.6,1.5c-.28.43-.64.78-1.08,1.03-.44.26-.98.38-1.6.38s-1.17-.13-1.61-.38c-.44-.26-.81-.6-1.09-1.03-.28-.43-.48-.93-.61-1.5-.13-.57-.19-1.17-.19-1.8s.06-1.23.19-1.79c.13-.57.33-1.06.61-1.49s.64-.76,1.09-1.01c.44-.25.98-.38,1.61-.38s1.16.13,1.6.38c.44.25.8.59,1.08,1.01.28.42.48.92.6,1.49s.19,1.16.19,1.79Zm-2.17,0c0-.28-.02-.58-.05-.92s-.1-.65-.19-.94c-.09-.29-.22-.53-.4-.73-.17-.2-.4-.3-.67-.3s-.5.1-.68.3-.31.44-.41.73c-.1.29-.16.6-.2.94-.03.34-.05.64-.05.92s.02.6.05.94c.03.34.1.65.2.94.1.29.23.53.41.73.18.2.4.3.68.3s.5-.1.67-.3c.17-.2.3-.44.4-.73.09-.29.15-.6.19-.94.03-.34.05-.65.05-.94Z"/>
<path class="c" d="m5.41,19.64c3.8,3.8,9.99,3.8,13.79,0s3.8-9.99,0-13.79-9.99-3.8-13.79,0l1.67,1.67-7.08,1.62L1.62,2.06l1.67,1.67c4.97-4.97,13.06-4.97,18.03,0,4.97,4.97,4.97,13.06,0,18.03-2.49,2.49-5.75,3.73-9.01,3.73s-6.53-1.24-9.01-3.73c-.96-.96-1.76-2.06-2.37-3.27l2.68-1.35c.47.92,1.08,1.76,1.81,2.5Z"/>
</svg>
